<?xml version="1.0" encoding="UTF-8"?>
<svg xmlns="http://www.w3.org/2000/svg" fill="none" viewBox="0 0 456.26 136.55">
  <g clip-path="url(#clip0_28653_14733)">
    <path d="M61.86 131.95C61.13 131.95 60.56 131.7 60.16 131.2C59.76 130.7 59.63 130.12 59.76 129.45L73.54 64.5401C73.67 63.8101 74.04 63.21 74.64 62.75C75.24 62.28 75.9 62.05 76.64 62.05H87.42C88.48 62.05 89.23 62.3401 89.67 62.9001C90.1 63.4701 90.38 63.92 90.52 64.25L101.4 95.7L125.66 64.25C125.86 63.92 126.27 63.4701 126.91 62.9001C127.54 62.3401 128.39 62.05 129.46 62.05H140.34C141.07 62.05 141.62 62.29 141.99 62.75C142.35 63.22 142.47 63.8101 142.34 64.5401L128.56 129.45C128.43 130.12 128.08 130.7 127.51 131.2C126.94 131.7 126.29 131.95 125.56 131.95H113.48C112.81 131.95 112.28 131.7 111.88 131.2C111.48 130.7 111.35 130.12 111.48 129.45L119.27 92.6101L104 112.87C103.53 113.4 102.98 113.92 102.35 114.42C101.72 114.92 100.93 115.17 100 115.17H94.81C93.88 115.17 93.21 114.94 92.81 114.47C92.41 114 92.11 113.47 91.91 112.87L84.82 91.7L76.83 129.44C76.69 130.11 76.33 130.69 75.73 131.19C75.13 131.69 74.5 131.94 73.83 131.94H61.86V131.95Z" fill="#E42938"></path>
    <path d="M230.31 131.95C229.18 131.95 228.33 131.65 227.76 131.05C227.19 130.45 226.88 129.75 226.81 128.95L220.02 64.75C219.95 63.89 220.15 63.22 220.62 62.75C221.09 62.28 221.68 62.05 222.42 62.05H234.4C235.46 62.05 236.23 62.3401 236.7 62.9001C237.17 63.4701 237.43 64.0501 237.5 64.6501L241.79 110.78L265.75 64.6501C266.02 64.0501 266.48 63.4701 267.15 62.9001C267.81 62.3401 268.68 62.05 269.75 62.05H283.13C283.93 62.05 284.44 62.37 284.68 63C284.91 63.63 284.86 64.3201 284.53 65.0501L250.58 128.95C250.18 129.75 249.6 130.45 248.83 131.05C248.06 131.65 247.08 131.95 245.89 131.95H230.31Z" fill="#E42938"></path>
    <path d="M282.13 131.95C281.4 131.95 280.83 131.7 280.43 131.2C280.03 130.7 279.9 130.12 280.03 129.45L293.91 64.5401C294.04 63.8101 294.41 63.21 295.01 62.75C295.61 62.28 296.24 62.05 296.91 62.05H310.39C311.06 62.05 311.59 62.29 311.99 62.75C312.39 63.22 312.52 63.8101 312.39 64.5401L298.61 129.45C298.47 130.12 298.11 130.7 297.51 131.2C296.91 131.7 296.28 131.95 295.61 131.95H282.13Z" fill="#E42938"></path>
    <path d="M314.48 131.95C313.81 131.95 313.28 131.7 312.88 131.2C312.48 130.7 312.35 130.12 312.48 129.45L326.26 64.5401C326.39 63.8101 326.74 63.21 327.31 62.75C327.87 62.28 328.52 62.05 329.26 62.05H339.84C340.9 62.05 341.65 62.29 342.09 62.75C342.52 63.22 342.77 63.6101 342.84 63.9501L359.12 102.59L367.21 64.5501C367.34 63.8201 367.71 63.22 368.31 62.76C368.91 62.29 369.54 62.0601 370.21 62.0601H382.19C382.92 62.0601 383.49 62.3 383.89 62.76C384.29 63.23 384.42 63.8201 384.29 64.5501L370.41 129.35C370.27 130.08 369.93 130.7 369.36 131.2C368.79 131.7 368.15 131.95 367.41 131.95H356.83C355.77 131.95 355.03 131.7 354.63 131.2C354.23 130.7 353.96 130.32 353.83 130.05L337.35 92.8001L329.56 129.45C329.43 130.12 329.06 130.7 328.46 131.2C327.86 131.7 327.19 131.95 326.46 131.95H314.48Z" fill="#E42938"></path>
    <path d="M413.93 132.94C407.61 132.94 402.4 131.89 398.3 129.79C394.2 127.69 391.33 124.63 389.66 120.61C388 116.58 387.66 111.67 388.66 105.88C389.19 103.02 389.81 99.97 390.51 96.74C391.21 93.51 391.89 90.43 392.56 87.5C393.96 81.84 396.36 77.05 399.75 73.12C403.14 69.19 407.36 66.2 412.38 64.13C417.4 62.07 423.01 61.03 429.21 61.03C434.2 61.03 438.5 61.65 442.09 62.88C445.68 64.11 448.58 65.76 450.78 67.82C452.98 69.88 454.51 72.15 455.37 74.61C456.23 77.07 456.47 79.5 456.07 81.9C455.94 82.5 455.62 83 455.12 83.4C454.62 83.8 454.04 84 453.37 84H438.8C438.13 84 437.63 83.88 437.3 83.65C436.96 83.42 436.7 83.07 436.5 82.6C436.3 81.6 435.86 80.55 435.2 79.46C434.53 78.36 433.5 77.41 432.1 76.61C430.7 75.81 428.74 75.41 426.21 75.41C422.41 75.41 419.22 76.41 416.62 78.41C414.02 80.41 412.16 83.6 411.03 88C410.36 90.8 409.72 93.66 409.08 96.59C408.45 99.52 407.86 102.45 407.33 105.38C406.53 110.04 407.04 113.4 408.88 115.47C410.71 117.53 413.52 118.56 417.32 118.56C419.78 118.56 422.1 118.13 424.26 117.26C426.42 116.39 428.27 115.05 429.8 113.21C431.33 111.38 432.36 109.03 432.9 106.17L433.3 104.27H423.91C423.18 104.27 422.63 104.02 422.26 103.52C421.89 103.02 421.77 102.41 421.91 101.67L423.51 94.28C423.64 93.55 424.01 92.93 424.61 92.43C425.21 91.93 425.87 91.68 426.61 91.68H451.77C452.5 91.68 453.05 91.93 453.42 92.43C453.79 92.93 453.9 93.54 453.77 94.28L451.37 105.66C450.1 111.39 447.73 116.28 444.23 120.34C440.74 124.4 436.39 127.51 431.2 129.68C426.02 131.86 420.26 132.94 413.93 132.94Z" fill="#E42938"></path>
    <path d="M107.15 47.63L109.53 30.94C109.74 29.48 108.7 28.15 107.23 28.02C91.9001 26.71 15.4601 22.51 1.65012 67.78C-10.5699 107.85 49.1001 136.54 49.1001 136.54C49.1001 136.54 -22.9899 86.78 39.4501 53.25C39.5801 53.18 39.7201 53.11 39.8701 53.06C61.7601 45.01 95.0001 48.58 104.3 49.8C105.69 50 106.95 49.02 107.15 47.63Z" fill="#E42938"></path>
    <path d="M113.11 4.83001L111.11 19.12C110.92 20.49 109.68 21.46 108.3 21.31C94.56 19.84 26.95 14.64 2.5 51.44C2.5 51.44 16.42 16.63 51.8 5.98001C84.38 -3.82999 104.34 1.22001 110.86 1.93001C112.3 2.09001 113.31 3.41001 113.11 4.83001Z" fill="#E42938"></path>
    <path fill-rule="evenodd" clip-rule="evenodd" d="M207.8 74.59L198.3 68.62L188.61 62.53C184.93 60.52 180.96 60.56 176.71 62.65L165.52 68.62L154.14 74.7C150.07 77.14 147.64 80.6 146.83 85.07L143.44 109.17C143.05 113.62 144.6 117.03 148.05 119.42L157.55 125.39L167.24 131.48C170.93 133.49 174.9 133.45 179.16 131.36L190.34 125.39L201.74 119.31C205.81 116.87 208.24 113.41 209.03 108.94L212.42 84.84C212.79 80.38 211.26 76.97 207.8 74.59ZM205.85 83.99L179.74 95L175.69 123.79H172.61L176.66 95L153.64 83.99L155.28 81.19L178.57 92.33L205 81.19L205.85 83.99Z" fill="#E42938"></path>
    <path d="M244.39 2.78003H126.1C124.84 2.78003 123.77 3.70003 123.57 4.94003L117.12 45.42C116.87 46.98 118.07 48.39 119.65 48.39H237.94C239.2 48.39 240.27 47.47 240.47 46.23L246.92 5.75003C247.17 4.19003 245.97 2.78003 244.39 2.78003ZM156.51 38.52C155 40.71 153.02 42.36 150.55 43.48C148.09 44.6 145.09 45.16 141.56 45.16C139.69 45.16 137.82 44.89 135.96 44.36C134.1 43.83 132.44 43.03 130.97 41.96C129.5 40.9 128.4 39.57 127.66 37.99C126.93 36.41 126.74 34.57 127.11 32.47C127.18 32.14 127.35 31.85 127.61 31.62C127.87 31.38 128.16 31.26 128.49 31.26H135.99C136.5 31.26 136.87 31.39 137.09 31.65C137.31 31.91 137.46 32.29 137.53 32.81C137.53 34.35 137.92 35.48 138.69 36.17C139.46 36.87 140.64 37.22 142.22 37.22C144.21 37.22 145.81 36.62 147.02 35.43C148.23 34.24 149.08 32.48 149.56 30.16L152.92 14.22H135.11C134.7 14.22 134.4 14.09 134.2 13.83C134 13.57 133.93 13.24 134.01 12.84L135.17 7.38003C135.24 6.98003 135.44 6.65003 135.75 6.39003C136.06 6.13003 136.42 6.00003 136.83 6.00003H163.52C163.92 6.00003 164.24 6.13003 164.46 6.39003C164.68 6.65003 164.75 6.98003 164.68 7.38003L159.77 30.43C159.1 33.64 158.02 36.33 156.51 38.52ZM197.32 14.34H180.28L178.57 22.45H194.45C194.85 22.45 195.16 22.59 195.36 22.86C195.56 23.14 195.63 23.48 195.55 23.88L194.39 29.39C194.32 29.76 194.11 30.08 193.78 30.36C193.45 30.64 193.08 30.77 192.68 30.77H176.8L174.1 43.23C174.03 43.6 173.83 43.92 173.52 44.2C173.21 44.48 172.85 44.61 172.44 44.61H165.49C165.12 44.61 164.83 44.47 164.61 44.2C164.39 43.92 164.32 43.6 164.39 43.23L172 7.38003C172.07 6.98003 172.28 6.65003 172.61 6.39003C172.94 6.13003 173.29 6.00003 173.66 6.00003H199.03C199.43 6.00003 199.74 6.13003 199.94 6.39003C200.14 6.65003 200.21 6.98003 200.13 7.38003L198.97 12.95C198.9 13.36 198.7 13.69 198.39 13.94C198.08 14.21 197.73 14.34 197.32 14.34ZM236.81 7.83003L219.88 25.2L230.3 42.79C230.59 43.27 230.58 43.69 230.24 44.06C229.91 44.43 229.54 44.61 229.14 44.61H221.42C220.83 44.61 220.39 44.5 220.1 44.28C219.81 44.06 219.59 43.8 219.44 43.51L211.17 29.72L208.25 43.23C208.18 43.6 207.99 43.92 207.7 44.2C207.4 44.48 207.06 44.61 206.65 44.61H199.65C199.28 44.61 198.99 44.47 198.77 44.2C198.55 43.92 198.48 43.6 198.55 43.23L206.16 7.38003C206.23 6.98003 206.43 6.65003 206.74 6.39003C207.05 6.13003 207.39 6.00003 207.76 6.00003H214.76C215.16 6.00003 215.48 6.13003 215.7 6.39003C215.92 6.65003 215.99 6.98003 215.92 7.38003L213.33 19.4L225.57 7.05003C225.79 6.83003 226.08 6.60003 226.45 6.36003C226.82 6.12003 227.31 6.00003 227.94 6.00003H236.1C236.61 6.00003 236.94 6.22003 237.07 6.66003C237.18 7.11003 237.1 7.50003 236.81 7.83003Z" fill="#E42938"></path>
  </g>
  <defs>
    <clipPath id="clip0_28653_14733">
      <rect width="456.26" height="136.55" fill="white"></rect>
    </clipPath>
  </defs>
</svg>
